#!OML:ASF H:\MichaelJackson\Top Level 1\Subject 1\Session 1\male.ASF
:FULLY-SPECIFIED
:DEGREES
713
root 5.53939 21.5033 7.37602 -44.6884 -88.7415 60.8466
lowerback 6.25975 -0.823868 -1.884
upperback -1.21556 -1.33879 -1.58353
thorax -4.76869 -0.63977 -0.445101
lowerneck -6.74521 -6.14589 -2.26055
upperneck -0.212131 -8.17026 4.91549
head 1.39624 -4.02082 1.64825
rclavicle -1.2921e-014 -4.41302e-014
rhumerus -12.3454 -3.453 -26.3227
rradius 99.2425
rwrist -9.46951
rhand -28.5883 -36.048
rfingers 7.12502
rthumb -1.95411 -786.019
lclavicle -1.2921e-014 -4.41302e-014
lhumerus 1.71129 -20.9172 15.4022
lradius 45.9936
lwrist 23.5511
lhand -21.4933 -3.18174
lfingers 7.12502
lthumb 4.89802 26.7416
rfemur -32.4126 -0.866112 -0.557946
rtibia 85.7264
rfoot 20.2108 -17.8752
rtoes 38.6021
lfemur -34.9956 -12.498 9.82684
ltibia 72.9483
lfoot 5.88796 -7.45612
ltoes 31.4781
714
root 5.51632 21.5248 7.5857 -114.811 -88.5347 131.091
lowerback 6.14711 -0.699867 -1.84115
upperback -1.26194 -1.16723 -1.5753
thorax -4.75466 -0.555866 -0.47938
lowerneck -6.80973 -6.29731 -2.34534
upperneck -0.317173 -8.36323 4.91648
head 1.38488 -4.11871 1.65447
rclavicle 3.77691e-015 -7.95139e-016
rhumerus -11.6072 -2.62759 -27.0112
rradius 99.2225
rwrist -9.63092
rhand -27.5551 -34.9797
rfingers 7.12502
rthumb -0.956194 -784.957
lclavicle 3.77691e-015 -7.95139e-016
lhumerus -0.00677256 -20.6113 16.0088
lradius 45.2287
lwrist 22.9737
lhand -21.8284 -3.2593
lfingers 7.12502
lthumb 4.57444 26.6713
rfemur -33.219 -1.14835 -1.23526
rtibia 91.4966
rfoot 20.8563 -19.1874
rtoes 40.821
lfemur -34.2732 -13.513 9.15372
ltibia 69.0394
lfoot 6.68345 -8.29926
ltoes 30.7132
715
root 5.49097 21.5295 7.79601 -140.605 -87.2103 157.04
lowerback 5.99658 -0.553404 -1.77502
upperback -1.3238 -0.963173 -1.56773
thorax -4.7355 -0.456483 -0.530585
lowerneck -6.88249 -6.45178 -2.43303
upperneck -0.433777 -8.5592 4.89979
head 1.37063 -4.21848 1.65523
rclavicle 1.2921e-014 3.18055e-014
rhumerus -10.8552 -1.84384 -27.5558
rradius 99.2563
rwrist -9.86977
rhand -26.5547 -33.9151
rfingers 7.12502
rthumb 0.0100137 -783.895
lclavicle 1.2921e-014 3.18055e-014
lhumerus -1.77093 -20.2407 16.623
lradius 44.6521
lwrist 22.5382
lhand -22.2191 -3.35407
lfingers 7.12502
lthumb 4.19717 26.5843
rfemur -33.8349 -1.58686 -1.91882
rtibia 97.0122
rfoot 21.3635 -20.6634
rtoes 42.9309
lfemur -33.5571 -14.4896 8.51967
ltibia 65.1241
lfoot 7.43438 -9.44215
ltoes 29.8338
716
root 5.46379 21.5177 8.00759 -149.464 -85.6489 166.089
lowerback 5.80845 -0.378505 -1.68514
upperback -1.39958 -0.71853 -1.55738
thorax -4.70934 -0.337568 -0.595827
lowerneck -6.9572 -6.60645 -2.53069
upperneck -0.571935 -8.75379 4.86803
head 1.34946 -4.31813 1.6531
rclavicle -1.33186e-014 1.63003e-014
rhumerus -10.0638 -1.11393 -27.9496
rradius 99.342
rwrist -10.1738
rhand -25.6356 -32.8974
rfingers 7.12502
rthumb 0.897697 -782.875
lclavicle -1.33186e-014 1.63003e-014
lhumerus -3.58477 -19.8667 17.2347
lradius 44.2483
lwrist 22.2696
lhand -22.6494 -3.47306
lfingers 7.12502
lthumb 3.78168 26.4731
rfemur -34.2746 -2.19786 -2.63214
rtibia 102.256
rfoot 21.7308 -22.0746
rtoes 44.8201
lfemur -32.8528 -15.4238 7.92372
ltibia 61.2216
lfoot 8.09105 -10.8652
ltoes 28.9234
717
root 5.43499 21.4898 8.22083 -153.851 -83.9747 170.706
lowerback 5.58026 -0.170426 -1.57305
upperback -1.4873 -0.427116 -1.54287
thorax -4.67224 -0.195991 -0.672832
lowerneck -7.03092 -6.75779 -2.64053
upperneck -0.734824 -8.94232 4.82583
head 1.32002 -4.41532 1.65032
rclavicle -1.09332e-015 -6.36111e-015
rhumerus -9.20414 -0.449676 -28.1996
rradius 99.4659
rwrist -10.5085
rhand -24.8437 -31.9587
rfingers 7.12502
rthumb 1.6625 -781.932
lclavicle -1.09332e-015 -6.36111e-015
lhumerus -5.45407 -19.5531 17.8375
lradius 43.9998
lwrist 22.1753
lhand -23.086 -3.61046
lfingers 7.12502
lthumb 3.36002 26.3428
rfemur -34.5538 -2.99977 -3.4008
rtibia 107.211
rfoot 22.0156 -23.169
rtoes 46.3697
lfemur -32.1609 -16.3059 7.36452
ltibia 57.3434
lfoot 8.62942 -12.4939
ltoes 28.0679
718
root 5.4045 21.4465 8.43581 -156.504 -82.1984 173.633
lowerback 5.30867 0.0734726 -1.44286
upperback -1.58454 -0.0858986 -1.52478
thorax -4.61923 -0.0301387 -0.759394
lowerneck -7.104 -6.90167 -2.76046
upperneck -0.918761 -9.11992 4.77953
head 1.28366 -4.50744 1.64873
rclavicle -2.21645e-014 -2.78299e-014
rhumerus -8.24495 0.138976 -28.3263
rradius 99.6041
rwrist -10.8249
rhand -24.2173 -31.1233
rfingers 7.12502
rthumb 2.26748 -781.091
lclavicle -2.21645e-014 -2.78299e-014
lhumerus -7.38771 -19.3555 18.4305
lradius 43.8867
lwrist 22.2371
lhand -23.4809 -3.74935
lfingers 7.12502
lthumb 2.97872 26.2096
rfemur -34.6842 -4.0143 -4.24971
rtibia 111.856
rfoot 22.3175 -23.7282
rtoes 47.477
lfemur -31.4761 -17.1243 6.83985
ltibia 53.4934
lfoot 9.05894 -14.2105
ltoes 27.3484
719
root 5.37204 21.3888 8.65235 -158.298 -80.3155 175.747
lowerback 4.99033 0.352925 -1.29889
upperback -1.68891 0.304122 -1.50509
thorax -4.54537 0.159618 -0.853966
lowerneck -7.18058 -7.03337 -2.88209
upperneck -1.11358 -9.28131 4.73238
head 1.24392 -4.59161 1.6479
rclavicle -1.14301e-014 2.50469e-014
rhumerus -7.15408 0.646354 -28.3627
rradius 99.7263
rwrist -11.071
rhand -23.7839 -30.4109
rfingers 7.12502
rthumb 2.68607 -780.374
lclavicle -1.14301e-014 2.50469e-014
lhumerus -9.39896 -19.3138 19.0196
lradius 43.8887
lwrist 22.4121
lhand -23.7822 -3.86453
lfingers 7.12502
lthumb 2.68771 26.0983
rfemur -34.6714 -5.2671 -5.20082
rtibia 116.167
rfoot 22.7379 -23.6135
rtoes 48.0836
lfemur -30.7896 -17.8699 6.34755
ltibia 49.6686
lfoot 9.4138 -15.8783
ltoes 26.8092
720
root 5.33724 21.3178 8.87 -159.586 -78.3202 177.403
lowerback 4.62378 0.665223 -1.14615
upperback -1.79813 0.738526 -1.48644
thorax -4.44698 0.371254 -0.954716
lowerneck -7.26633 -7.14872 -2.99478
upperneck -1.30576 -9.42207 4.68582
head 1.20545 -4.66535 1.64627
rclavicle 3.47873e-014 8.34896e-015
rhumerus -5.9004 1.07233 -28.3491
rradius 99.7998
rwrist -11.2043
rhand -23.5603 -29.8391
rfingers 7.12502
rthumb 2.90204 -779.799
lclavicle 3.47873e-014 8.34896e-015
lhumerus -11.5043 -19.4502 19.6192
lradius 43.9865
lwrist 22.6393
lhand -23.9498 -3.93199
lfingers 7.12502
lthumb 2.52588 26.0328
rfemur -34.5005 -6.7826 -6.27174
rtibia 120.127
rfoot 23.3066 -22.7963
rtoes 48.191
lfemur -30.1323 -18.5378 5.8852
ltibia 45.9691
lfoot 9.67354 -17.3662
ltoes 26.4641
721
root 5.2997 21.2347 9.08814 -160.543 -76.2089 178.773
lowerback 4.20956 1.00608 -0.989286
upperback -1.90992 1.2108 -1.47084
thorax -4.32161 0.601735 -1.05907
lowerneck -7.36517 -7.24419 -3.08739
upperneck -1.48332 -9.53846 4.63842
head 1.17189 -4.72667 1.64134
rclavicle 4.96962e-016 -9.54166e-015
rhumerus -4.45569 1.42275 -28.3285
rradius 99.7948
rwrist -11.2027
rhand -23.552 -29.4234
rfingers 7.12502
rthumb 2.90997 -779.383
lclavicle 4.96962e-016 -9.54166e-015
lhumerus -13.7217 -19.7645 20.2526
lradius 44.1622
lwrist 22.8479
lhand -23.9607 -3.94097
lfingers 7.12502
lthumb 2.51529 26.0239
rfemur -34.171 -8.57547 -7.47098
rtibia 123.688
rfoot 24.0551 -21.3445
rtoes 47.8515
lfemur -29.4642 -19.1287 5.45089
ltibia 42.3094
lfoot 9.93393 -18.5853
ltoes 26.296
722
root 5.26863 21.1112 9.31381 -161.265 -73.9791 179.951
lowerback 3.75077 1.37104 -0.832288
upperback -2.0227 1.7143 -1.45977
thorax -4.16915 0.847949 -1.16427
lowerneck -7.47726 -7.31759 -3.15097
upperneck -1.63767 -9.62828 4.58767
head 1.14524 -4.77444 1.63073
rclavicle 3.12092e-014 -1.51076e-014
rhumerus -2.79787 1.7089 -28.3427
rradius 99.6868
rwrist -11.0679
rhand -23.7528 -29.1764
rfingers 7.12502
rthumb 2.71608 -779.139
lclavicle 3.12092e-014 -1.51076e-014
lhumerus -16.0665 -20.2376 20.9508
lradius 44.3993
lwrist 22.9706
lhand -23.814 -3.90081
lfingers 7.12502
lthumb 2.65698 26.0624
rfemur -33.7241 -10.7955 -9.07571
rtibia 126.988
rfoot 24.836 -19.1513
rtoes 47.1443
lfemur -28.8811 -19.6287 5.07981
ltibia 38.767
lfoot 10.2444 -19.5099
ltoes 26.2718
723
root 5.22491 21.0053 9.53161 -161.812 -71.6286 180.993
lowerback 3.25413 1.75679 -0.677575
upperback -2.1354 2.24401 -1.45409
thorax -3.9922 1.10755 -1.26809
lowerneck -7.59943 -7.3687 -3.17969
upperneck -1.76413 -9.69171 4.53053
head 1.12591 -4.80881 1.61255
rclavicle -1.37161e-014 -2.90226e-014
rhumerus -0.91364 1.94637 -28.4293
rradius 99.4593
rwrist -10.8245
rhand -24.1448 -29.1063
rfingers 7.12502
rthumb 2.33753 -779.073
lclavicle -1.37161e-014 -2.90226e-014
lhumerus -18.5491 -20.832 21.7486
lradius 44.6841
lwrist 22.9536
lhand -23.5304 -3.83848
lfingers 7.12502
lthumb 2.93091 26.1211
rfemur -33.0284 -13.1072 -10.5516
rtibia 129.66
rfoot 25.8557 -16.8627
rtoes 46.1541
lfemur -28.1668 -20.0832 4.69474
ltibia 35.193
lfoot 10.6079 -20.0797
ltoes 26.3599
724
root 5.17811 20.8901 9.74803 -162.231 -69.1549 181.938
lowerback 2.72972 2.16188 -0.524263
upperback -2.24734 2.79767 -1.45421
thorax -3.79558 1.37944 -1.37026
lowerneck -7.72567 -7.39935 -3.17045
upperneck -1.8614 -9.7315 4.46497
head 1.11307 -4.83126 1.58574
rclavicle -8.50798e-014 -1.66979e-014
rhumerus 1.19922 2.15314 -28.6207
rradius 99.104
rwrist -10.512
rhand -24.6967 -29.1944
rfingers 7.12502
rthumb 1.8045 -779.167
lclavicle -8.50798e-014 -1.66979e-014
lhumerus -21.1702 -21.497 22.6798
lradius 45.0054
lwrist 22.7656
lhand -23.1422 -3.78979
lfingers 7.12502
lthumb 3.30574 26.1643
rfemur -32.1661 -15.5566 -12.0725
rtibia 131.842
rfoot 27.0157 -14.4362
rtoes 44.9637
lfemur -27.4227 -20.4753 4.33012
ltibia 31.6838
lfoot 11.0697 -20.3544
ltoes 26.5212
